<?xml version="1.0" encoding="utf-8"?>
<!DOCTYPE svg PUBLIC "-//W3C//DTD SVG 1.1//EN" "http://www.w3.org/Graphics/SVG/1.1/DTD/svg11.dtd">
<svg version="1.1" id="all" xmlns="http://www.w3.org/2000/svg" xmlns:xlink="http://www.w3.org/1999/xlink" x="0px" y="0px"
	 width="841.89px" height="595.28px" viewBox="0 0 841.89 595.28" enable-background="new 0 0 841.89 595.28" xml:space="preserve">
<path id="two" fill="#73BF44" stroke="#000000" stroke-miterlimit="10" d="M318.87,174.741l51.479-10.651
	c0,0,79.291,28.402,86.982,37.87s47.336,58.58,47.336,58.58s7.693,64.498,8.877,69.822c1.184,5.326-26.627,37.869-36.688,42.604
	c-10.059,4.734-70.414,30.18-75.147,31.953c-4.733,1.775-78.698,11.242-76.923,4.734c1.775-6.51-47.929-72.189-50.296-88.166
	s-52.663-61.538-21.302-78.106s15.977-34.319,64.497-28.402s90.128,30.294,100.592,37.278c3.027,2.02-2.074-4.065-8.284-9.468
	c-33.484-29.132-70.415-49.112-73.374-49.112S318.87,174.741,318.87,174.741z"/>
<path id="one" fill="#C362A6" stroke="#000000" stroke-miterlimit="10" d="M274.492,321.486
	c-2.367-15.977-52.663-61.538-21.302-78.106s15.977-34.319,64.497-28.402s90.128,30.294,100.592,37.278
	c3.027,2.02-2.074-4.065-8.284-9.468c-33.484-29.132-70.415-49.112-73.374-49.112s-17.751-18.935-17.751-18.935l51.479-10.651
	c0,0,79.291,28.402,86.982,37.87c3.075,3.786,11.259,13.909,19.974,24.697c2.427-16.333,2.178-32.65-0.806-44.156
	c-7-27-8.5-42.5-18.5-49s-50-18-50-18s-81-11-129.5-10.5s-83.5-1.5-94.5,13s-41,46-38.5,70s-5,51.5-1,69.5S128.5,305,162,315
	s37.5,11,61,12c21.472,0.914,17.072,4.746,52-3.37C274.763,322.845,274.586,322.122,274.492,321.486z"/>
</svg>
